# xmcd
#
# Track frame offsets: 
#        150
#        16260
#        34875
#        49300
#        64612
#        79895
#        98487
#        115632
#        128270
#        145042
#
# Disc length: 2115 seconds
#
# Revision: 0
# Processed by: cddbd v1.4PL0 Copyright (c) Steve Scherf et al.
# Submitted via: ExactAudioCopy v0.90b3
#
DISCID=7308410a
DTITLE=徐小凤   - 别亦难
DYEAR=1999
DGENRE=中文金曲
TTITLE0=别亦难
TTITLE1=蓝与黑
TTITLE2=天涯歌女
TTITLE3=明月千里寄相思
TTITLE4=三年
TTITLE5=月光小夜曲
TTITLE6=不了情
TTITLE7=心恋
TTITLE8=南屏晚钟
TTITLE9=今宵多珍重
EXTD=
EXTT0=
EXTT1=
EXTT2=
EXTT3=
EXTT4=
EXTT5=
EXTT6=
EXTT7=
EXTT8=
EXTT9=
PLAYORDER=
